<svg width="510" height="224" viewBox="0 0 510 224" fill="none" xmlns="http://www.w3.org/2000/svg">
<line x1="3.5" y1="30" x2="3.49999" y2="200" stroke="#B7B7B7" stroke-dasharray="8 8"/>
<line x1="247.5" y1="30" x2="247.5" y2="200" stroke="#B7B7B7" stroke-dasharray="8 8"/>
<line x1="3" y1="29.5" x2="499" y2="29.5" stroke="#B7B7B7" stroke-dasharray="8 8"/>
<line x1="3" y1="88.5" x2="499" y2="88.5" stroke="#B7B7B7" stroke-dasharray="8 8"/>
<line x1="3" y1="155.5" x2="499" y2="155.5" stroke="#B7B7B7" stroke-dasharray="8 8"/>
<line x1="483.5" y1="30" x2="483.5" y2="200" stroke="#B7B7B7" stroke-dasharray="8 8"/>
<rect x="3" y="200" width="507" height="7" fill="black"/>
<path d="M5.832 11H4.744L5.752 8.376H3.432V7.32H6.12L7.352 4.136H4.696V3.096H7.768L8.872 0.28H9.976L8.888 3.096H12.344L13.448 0.28H14.552L13.464 3.096H15.816V4.136H13.096L11.864 7.32H14.568V8.376H11.416L10.408 11H9.32L10.312 8.376H6.84L5.832 11ZM8.456 4.056L7.176 7.416H10.744L12.024 4.056H8.456ZM23.6191 11.16C21.2991 11.16 19.7791 9.448 19.7791 7.048C19.7791 4.648 21.2991 2.936 23.6191 2.936C25.9231 2.936 27.3951 4.648 27.3951 7.048C27.3951 9.448 25.9231 11.16 23.6191 11.16ZM23.6191 10.136C25.5231 10.136 26.2751 9.016 26.2751 7.048C26.2751 5.08 25.5231 3.976 23.6191 3.976C21.6831 3.976 20.9151 5.08 20.9151 7.048C20.9151 9.016 21.6831 10.136 23.6191 10.136ZM30.2445 11H29.1085V4.088H27.9405V3.096H29.1085V2.792C29.1085 1.16 30.0205 0.28 31.7645 0.28H32.4685V1.224H31.5565C30.6445 1.224 30.2285 1.608 30.2285 2.408V3.096H32.4685V4.088H30.2445V11ZM37.5488 2.04H36.3968V0.28H37.5488V2.04ZM34.8607 13.72V12.664H35.4207C36.1888 12.664 36.3968 12.52 36.3968 11.816V3.096H37.5488V11.544C37.5488 13.24 36.6848 13.72 35.3087 13.72H34.8607ZM42.7754 11.16C40.4554 11.16 38.9354 9.448 38.9354 7.048C38.9354 4.648 40.4554 2.936 42.7754 2.936C45.0794 2.936 46.5514 4.648 46.5514 7.048C46.5514 9.448 45.0794 11.16 42.7754 11.16ZM42.7754 10.136C44.6794 10.136 45.4314 9.016 45.4314 7.048C45.4314 5.08 44.6794 3.976 42.7754 3.976C40.8394 3.976 40.0714 5.08 40.0714 7.048C40.0714 9.016 40.8394 10.136 42.7754 10.136ZM48.9985 11H47.9585V0.28H49.1105V4.6C49.4625 3.736 50.4385 2.936 51.9585 2.936C54.1185 2.936 55.2865 4.552 55.2865 7.048C55.2865 9.544 54.0545 11.16 51.8305 11.16C50.3425 11.16 49.3985 10.472 49.0465 9.48H48.9985V11ZM49.1105 7.736C49.1105 9.352 50.0705 10.168 51.6385 10.168C53.1905 10.168 54.1345 9.464 54.1345 7.048C54.1345 4.632 53.1745 3.928 51.6385 3.928C50.0705 3.928 49.1105 4.744 49.1105 6.376V7.736ZM64.3165 11.16C61.3725 11.16 59.4205 8.984 59.4205 5.64C59.4205 2.296 61.3725 0.12 64.3165 0.12C67.2445 0.12 69.1965 2.296 69.1965 5.64C69.1965 8.984 67.2445 11.16 64.3165 11.16ZM64.3165 10.056C66.8285 10.056 67.9965 8.616 67.9965 5.64C67.9965 2.664 66.8285 1.224 64.3165 1.224C61.8045 1.224 60.6205 2.664 60.6205 5.64C60.6205 8.616 61.8045 10.056 64.3165 10.056ZM72.2758 11H71.1398V4.088H69.9718V3.096H71.1398V2.792C71.1398 1.16 72.0518 0.28 73.7958 0.28H74.4998V1.224H73.5878C72.6758 1.224 72.2598 1.608 72.2598 2.408V3.096H75.4438V2.792C75.4438 1.16 76.3558 0.28 78.0998 0.28H78.8038V1.224H77.8918C76.9798 1.224 76.5638 1.608 76.5638 2.408V3.096H78.8038V4.088H76.5798V11H75.4438V4.088H72.2758V11ZM82.7251 11.16C80.2931 11.16 79.0291 9.448 79.0291 7.048C79.0291 4.648 80.4531 2.936 82.7091 2.936C84.6131 2.936 86.1811 4.088 86.1811 6.424C86.1811 6.792 86.1491 7.144 86.1011 7.368H80.1171C80.1651 9.112 80.8531 10.136 82.7411 10.136C84.3411 10.136 84.9811 9.416 84.9811 8.456V8.36H86.1171V8.472C86.1171 9.992 84.7411 11.16 82.7251 11.16ZM82.6771 3.928C80.9171 3.928 80.2131 4.936 80.1171 6.536H85.0931C85.1571 4.664 84.2291 3.928 82.6771 3.928ZM88.8136 11H87.6616V3H88.7016V4.328H88.7816C89.0376 3.592 89.8056 2.936 90.9736 2.936C92.6056 2.936 93.2296 4.104 93.2296 5.464V5.912H92.0776V5.64C92.0776 4.408 91.6936 3.928 90.5576 3.928C89.3256 3.928 88.8136 4.488 88.8136 5.768V11ZM97.7366 11.16C95.5766 11.16 94.3926 10.248 94.3926 8.408V8.376H95.5126V8.568C95.5126 9.656 95.9606 10.184 97.7526 10.184C99.2246 10.184 99.6086 9.768 99.6086 8.968C99.6086 8.168 99.1126 7.88 97.9126 7.656L96.6006 7.432C95.3206 7.192 94.3926 6.6 94.3926 5.208C94.3926 3.848 95.5446 2.936 97.4166 2.936C99.2246 2.936 100.553 3.864 100.553 5.64V5.72H99.4486V5.592C99.4486 4.648 99.0806 3.928 97.3846 3.928C95.9446 3.928 95.4966 4.392 95.4966 5.192C95.4966 5.992 95.8966 6.264 97.0806 6.488L98.4246 6.744C99.8006 7 100.713 7.608 100.713 8.92C100.713 10.328 99.5606 11.16 97.7366 11.16Z" fill="#282828"/>
<path d="M4.968 223H3.672V214.96H5.508L7.344 219.376L8.052 221.296H8.148L8.844 219.376L10.644 214.96H12.48V223H11.196V218.248L11.244 216.904H11.16L10.656 218.248L8.856 222.52H7.296L5.484 218.248L5.004 216.904H4.896L4.968 218.248V223ZM16.4033 223.12C14.5673 223.12 13.4272 221.872 13.4272 220.012C13.4272 218.164 14.5673 216.916 16.4033 216.916C18.2273 216.916 19.3313 218.164 19.3313 220.012C19.3313 221.872 18.2273 223.12 16.4033 223.12ZM16.4033 221.968C17.6513 221.968 18.0833 221.356 18.0833 220.012C18.0833 218.68 17.6513 218.068 16.4033 218.068C15.1433 218.068 14.6993 218.68 14.6993 220.012C14.6993 221.356 15.1433 221.968 16.4033 221.968ZM21.5961 223H20.3001V217.036H21.4881V218.152H21.5361C21.8121 217.516 22.4481 216.916 23.6121 216.916C25.1601 216.916 25.8561 217.9 25.8561 219.256V223H24.5601V219.544C24.5601 218.476 24.2241 218.032 23.1321 218.032C22.0761 218.032 21.5961 218.44 21.5961 219.556V223ZM29.5226 223C28.1906 223 27.4946 222.508 27.4946 221.164V218.116H26.4986V217.036H27.5186L27.7946 215.56H28.7906V217.036H30.5906V218.116H28.7906V221.104C28.7906 221.728 29.0546 221.836 29.8586 221.836H30.5906V222.892C30.3386 222.952 29.9306 223 29.5226 223ZM32.8109 223H31.5149V214.96H32.8109V218.032H32.8589C33.1349 217.492 33.7709 216.916 34.8509 216.916C36.4109 216.916 37.0709 217.936 37.0709 219.244V223H35.7749V219.544C35.7749 218.476 35.4389 218.032 34.3469 218.032C33.2909 218.032 32.8109 218.44 32.8109 219.568V223ZM43.2367 223H41.9407V216.88H40.2487V215.956H40.5607C41.3167 215.956 41.7607 215.68 42.0967 214.96H43.2367V223Z" fill="#0A2A60"/>
<path d="M466.968 223H465.672V214.96H467.508L469.344 219.376L470.052 221.296H470.148L470.844 219.376L472.644 214.96H474.48V223H473.196V218.248L473.244 216.904H473.16L472.656 218.248L470.856 222.52H469.296L467.484 218.248L467.004 216.904H466.896L466.968 218.248V223ZM478.403 223.12C476.567 223.12 475.427 221.872 475.427 220.012C475.427 218.164 476.567 216.916 478.403 216.916C480.227 216.916 481.331 218.164 481.331 220.012C481.331 221.872 480.227 223.12 478.403 223.12ZM478.403 221.968C479.651 221.968 480.083 221.356 480.083 220.012C480.083 218.68 479.651 218.068 478.403 218.068C477.143 218.068 476.699 218.68 476.699 220.012C476.699 221.356 477.143 221.968 478.403 221.968ZM483.596 223H482.3V217.036H483.488V218.152H483.536C483.812 217.516 484.448 216.916 485.612 216.916C487.16 216.916 487.856 217.9 487.856 219.256V223H486.56V219.544C486.56 218.476 486.224 218.032 485.132 218.032C484.076 218.032 483.596 218.44 483.596 219.556V223ZM491.523 223C490.191 223 489.495 222.508 489.495 221.164V218.116H488.499V217.036H489.519L489.795 215.56H490.791V217.036H492.591V218.116H490.791V221.104C490.791 221.728 491.055 221.836 491.859 221.836H492.591V222.892C492.339 222.952 491.931 223 491.523 223ZM494.811 223H493.515V214.96H494.811V218.032H494.859C495.135 217.492 495.771 216.916 496.851 216.916C498.411 216.916 499.071 217.936 499.071 219.244V223H497.775V219.544C497.775 218.476 497.439 218.032 496.347 218.032C495.291 218.032 494.811 218.44 494.811 219.568V223ZM505.621 223.12C503.329 223.12 502.453 222.076 502.453 220.54V220.348H503.725V220.528C503.725 221.536 504.061 221.932 505.645 221.932C506.917 221.932 507.421 221.62 507.421 220.684C507.421 219.676 506.977 219.376 505.861 219.376H504.253V218.296H505.681C506.737 218.296 507.145 218.032 507.145 217.192C507.145 216.352 506.665 216.028 505.537 216.028C504.145 216.028 503.725 216.424 503.725 217.432V217.528H502.453V217.42C502.453 215.884 503.533 214.84 505.549 214.84C507.361 214.84 508.441 215.584 508.441 216.988C508.441 217.912 507.973 218.596 506.953 218.74V218.788C508.057 218.944 508.729 219.664 508.729 220.816C508.729 222.364 507.481 223.12 505.621 223.12Z" fill="#0A2A60"/>
<path d="M361.092 185H359.808V178.124H357.072V176.96H363.828V178.124H361.092V185ZM365.354 185H364.058V179H365.246V179.948H365.306C365.546 179.396 366.098 178.916 366.974 178.916C368.222 178.916 368.702 179.828 368.702 180.944V181.34H367.406V181.1C367.406 180.308 367.178 180.02 366.422 180.02C365.642 180.02 365.354 180.32 365.354 181.112V185ZM371.022 185.12C369.954 185.12 369.126 184.568 369.126 183.524C369.126 182.54 369.846 182.024 371.118 181.844L373.206 181.532V181.208C373.206 180.32 372.798 180.056 371.862 180.056C370.914 180.056 370.542 180.356 370.542 181.148V181.328H369.294V181.208C369.294 179.876 370.338 178.916 371.934 178.916C373.602 178.916 374.442 179.924 374.442 181.376V185H373.242V184.064H373.182C372.834 184.628 372.15 185.12 371.022 185.12ZM370.386 183.428C370.386 183.896 370.686 184.088 371.442 184.088C372.282 184.088 373.206 183.752 373.206 182.552V182.444L371.31 182.732C370.626 182.828 370.386 182.984 370.386 183.428ZM378.047 185.12C376.343 185.12 375.419 183.908 375.419 182.012C375.419 180.128 376.331 178.916 377.975 178.916C379.031 178.916 379.667 179.42 379.931 179.96H379.967V176.96H381.251V185H380.063V184.016H380.015C379.727 184.7 379.067 185.12 378.047 185.12ZM376.715 182.012C376.715 183.488 377.183 184.016 378.335 184.016C379.391 184.016 379.967 183.548 379.967 182.552V181.484C379.967 180.488 379.391 180.02 378.335 180.02C377.195 180.02 376.715 180.548 376.715 182.012ZM383.739 178.28H382.455L382.443 176.96H383.739V178.28ZM383.751 185H382.455V179H383.751V185ZM387.39 185C386.058 185 385.362 184.508 385.362 183.164V180.116H384.366V179.036H385.386L385.662 177.56H386.658V179.036H388.458V180.116H386.658V183.104C386.658 183.728 386.922 183.836 387.726 183.836H388.458V184.892C388.206 184.952 387.798 185 387.39 185ZM390.512 178.28H389.228L389.216 176.96H390.512V178.28ZM390.524 185H389.228V179H390.524V185ZM394.392 185.12C392.556 185.12 391.416 183.872 391.416 182.012C391.416 180.164 392.556 178.916 394.392 178.916C396.216 178.916 397.32 180.164 397.32 182.012C397.32 183.872 396.216 185.12 394.392 185.12ZM394.392 183.968C395.64 183.968 396.072 183.356 396.072 182.012C396.072 180.68 395.64 180.068 394.392 180.068C393.132 180.068 392.688 180.68 392.688 182.012C392.688 183.356 393.132 183.968 394.392 183.968ZM399.584 185H398.288V179.036H399.476V180.152H399.524C399.8 179.516 400.436 178.916 401.6 178.916C403.148 178.916 403.844 179.9 403.844 181.256V185H402.548V181.544C402.548 180.476 402.212 180.032 401.12 180.032C400.064 180.032 399.584 180.44 399.584 181.556V185ZM406.694 185.12C405.626 185.12 404.798 184.568 404.798 183.524C404.798 182.54 405.518 182.024 406.79 181.844L408.878 181.532V181.208C408.878 180.32 408.47 180.056 407.534 180.056C406.586 180.056 406.214 180.356 406.214 181.148V181.328H404.966V181.208C404.966 179.876 406.01 178.916 407.606 178.916C409.274 178.916 410.114 179.924 410.114 181.376V185H408.914V184.064H408.854C408.506 184.628 407.822 185.12 406.694 185.12ZM406.058 183.428C406.058 183.896 406.358 184.088 407.114 184.088C407.954 184.088 408.878 183.752 408.878 182.552V182.444L406.982 182.732C406.298 182.828 406.058 182.984 406.058 183.428ZM412.651 185H411.355V176.96H412.651V185ZM417.503 178.28H416.207V176.96H417.503V178.28ZM415.007 187.04V185.864H415.475C416.087 185.864 416.207 185.768 416.207 185.276V179.036H417.503V185.012C417.503 186.596 416.675 187.04 415.379 187.04H415.007ZM421.45 185.12C419.614 185.12 418.474 183.872 418.474 182.012C418.474 180.164 419.614 178.916 421.45 178.916C423.274 178.916 424.378 180.164 424.378 182.012C424.378 183.872 423.274 185.12 421.45 185.12ZM421.45 183.968C422.698 183.968 423.13 183.356 423.13 182.012C423.13 180.68 422.698 180.068 421.45 180.068C420.19 180.068 419.746 180.68 419.746 182.012C419.746 183.356 420.19 183.968 421.45 183.968ZM426.547 185H425.359V176.96H426.655V179.984H426.679C426.943 179.444 427.627 178.916 428.683 178.916C430.327 178.916 431.191 180.128 431.191 182.012C431.191 183.908 430.279 185.12 428.611 185.12C427.579 185.12 426.883 184.712 426.595 184.016H426.547V185ZM426.655 182.552C426.655 183.548 427.231 184.016 428.275 184.016C429.427 184.016 429.907 183.488 429.907 182.012C429.907 180.548 429.415 180.02 428.275 180.02C427.231 180.02 426.655 180.488 426.655 181.484V182.552ZM436.996 185.12C435.256 185.12 434.344 184.436 434.344 182.984V182.96H435.592V183.176C435.592 183.824 435.88 184.064 437.02 184.064C437.98 184.064 438.16 183.848 438.16 183.404C438.16 182.924 437.872 182.78 436.996 182.624L436.072 182.468C435.004 182.276 434.332 181.796 434.332 180.716C434.332 179.636 435.22 178.916 436.78 178.916C438.184 178.916 439.24 179.612 439.24 180.968V181.076H438.004V180.932C438.004 180.38 437.812 179.984 436.744 179.984C435.796 179.984 435.568 180.236 435.568 180.692C435.568 181.148 435.784 181.28 436.624 181.448L437.632 181.64C438.784 181.868 439.384 182.384 439.384 183.368C439.384 184.472 438.508 185.12 436.996 185.12ZM443.081 185.12C441.113 185.12 440.189 183.872 440.189 182.012C440.189 180.164 441.293 178.916 443.069 178.916C444.677 178.916 445.805 179.876 445.805 181.508C445.805 181.82 445.769 182.144 445.733 182.324H441.401C441.449 183.416 441.845 183.968 443.093 183.968C444.089 183.968 444.473 183.632 444.473 183.092V182.996H445.757V183.104C445.757 184.328 444.689 185.12 443.081 185.12ZM443.045 180.008C441.917 180.008 441.485 180.536 441.413 181.46H444.569C444.617 180.44 444.065 180.008 443.045 180.008ZM448.518 185.12C447.45 185.12 446.622 184.568 446.622 183.524C446.622 182.54 447.342 182.024 448.614 181.844L450.702 181.532V181.208C450.702 180.32 450.294 180.056 449.358 180.056C448.41 180.056 448.038 180.356 448.038 181.148V181.328H446.79V181.208C446.79 179.876 447.834 178.916 449.43 178.916C451.098 178.916 451.938 179.924 451.938 181.376V185H450.738V184.064H450.678C450.33 184.628 449.646 185.12 448.518 185.12ZM447.882 183.428C447.882 183.896 448.182 184.088 448.938 184.088C449.778 184.088 450.702 183.752 450.702 182.552V182.444L448.806 182.732C448.122 182.828 447.882 182.984 447.882 183.428ZM454.475 185H453.179V179H454.367V179.948H454.427C454.667 179.396 455.219 178.916 456.095 178.916C457.343 178.916 457.823 179.828 457.823 180.944V181.34H456.527V181.1C456.527 180.308 456.299 180.02 455.543 180.02C454.763 180.02 454.475 180.32 454.475 181.112V185ZM461.328 185.132C459.468 185.132 458.412 183.872 458.412 182.024C458.412 180.164 459.504 178.916 461.376 178.916C462.948 178.916 464.028 179.888 464.028 181.316V181.424H462.744V181.352C462.744 180.476 462.288 180.08 461.292 180.08C460.14 180.08 459.696 180.728 459.696 182.024C459.696 183.32 460.14 183.956 461.292 183.956C462.288 183.956 462.744 183.572 462.744 182.696V182.624H464.028V182.732C464.028 184.148 462.936 185.132 461.328 185.132ZM466.311 185H465.015V176.96H466.311V180.032H466.359C466.635 179.492 467.271 178.916 468.351 178.916C469.911 178.916 470.571 179.936 470.571 181.244V185H469.275V181.544C469.275 180.476 468.939 180.032 467.847 180.032C466.791 180.032 466.311 180.44 466.311 181.568V185Z" fill="#969696"/>
<path fill-rule="evenodd" clip-rule="evenodd" d="M353.92 40.3186H364.619C364.763 40.3186 364.881 40.4362 364.881 40.5802V50.6745C364.881 50.8182 364.763 50.9358 364.619 50.9358H360.551V44.9097C360.551 44.7659 360.433 44.6483 360.29 44.6483H353.658V40.5802C353.658 40.4364 353.776 40.3186 353.92 40.3186Z" fill="#0A2A60"/>
<path fill-rule="evenodd" clip-rule="evenodd" d="M349.592 44.6481H353.678C353.678 44.6481 360.553 50.9356 360.553 50.8719V55.0039C360.553 55.1477 360.435 55.2653 360.291 55.2653H356.223V49.2392C356.223 49.0954 356.105 48.9778 355.962 48.9778H349.33V44.9096C349.33 44.7659 349.448 44.6483 349.591 44.6483L349.592 44.6481Z" fill="#0A2A60"/>
<path fill-rule="evenodd" clip-rule="evenodd" d="M345.261 48.9779H349.347C349.347 48.9779 356.223 55.2656 356.223 55.2017V59.3338C356.223 59.4775 356.105 59.5951 355.961 59.5951H351.893V53.569C351.893 53.4252 351.775 53.3076 351.631 53.3076H345V49.2395C345 49.0957 345.118 48.9781 345.261 48.9781V48.9779Z" fill="#0A2A60"/>
<path d="M370.213 55.0128V40.2412H372.484V53.003H376.725V55.0128H370.213H370.213ZM378.131 55.0128V45.788H380.382V55.0128H378.131ZM379.257 44.0597C378.842 44.0597 378.496 43.919 378.222 43.6376C377.947 43.3562 377.81 43.0079 377.81 42.5925C377.81 42.2174 377.947 41.8958 378.222 41.6279C378.496 41.3598 378.842 41.2258 379.257 41.2258C379.672 41.2258 380.017 41.3598 380.292 41.6279C380.567 41.8958 380.704 42.2174 380.704 42.5925C380.704 43.0079 380.567 43.3562 380.292 43.6376C380.017 43.919 379.672 44.0597 379.257 44.0597ZM387.617 59.8362C387.095 59.8362 386.596 59.7827 386.12 59.6755C385.645 59.5683 385.233 59.4511 384.884 59.3238C384.536 59.1966 384.301 59.0994 384.181 59.0324L384.663 57.0227C384.985 57.2371 385.38 57.4348 385.849 57.6155C386.318 57.7964 386.887 57.8869 387.557 57.8869C387.865 57.8869 388.183 57.8567 388.512 57.7964C388.84 57.7362 389.152 57.609 389.446 57.4146C389.741 57.2204 389.979 56.9323 390.16 56.5504C390.341 56.1685 390.431 55.6627 390.431 55.033V53.3849C390.163 53.8807 389.718 54.3095 389.095 54.6712C388.472 55.033 387.765 55.2137 386.974 55.2137C386.17 55.2137 385.437 55.0161 384.774 54.6209C384.11 54.2256 383.581 53.663 383.186 52.9328C382.791 52.2026 382.593 51.3417 382.593 50.3503C382.593 49.3989 382.777 48.565 383.146 47.8482C383.514 47.1315 384.037 46.5687 384.713 46.1601C385.39 45.7515 386.191 45.5471 387.115 45.5471C387.678 45.5471 388.194 45.6443 388.662 45.8385C389.131 46.0327 389.523 46.2673 389.838 46.5419C390.153 46.8166 390.364 47.0812 390.471 47.3359L390.511 45.7882H392.561V54.9527C392.561 56.4669 392.169 57.6592 391.386 58.5301C390.602 59.401 389.346 59.8364 387.617 59.8364L387.617 59.8362ZM387.577 53.3849C388.073 53.3849 388.525 53.2677 388.934 53.0333C389.342 52.7986 389.671 52.4672 389.919 52.0384C390.166 51.6096 390.29 51.1005 390.29 50.511V50.3703C390.29 49.7673 390.166 49.2415 389.919 48.7926C389.671 48.3438 389.343 47.9954 388.934 47.7476C388.525 47.4997 388.073 47.3757 387.577 47.3757C386.68 47.3757 386.006 47.6638 385.557 48.2399C385.109 48.8159 384.884 49.5261 384.884 50.3703C384.884 51.2279 385.109 51.9447 385.557 52.5207C386.006 53.0968 386.68 53.3849 387.577 53.3849ZM395.134 55.0128V40.2412H397.244V45.788L397.164 47.4964C397.405 46.9471 397.803 46.4848 398.359 46.1097C398.915 45.7344 399.582 45.5469 400.359 45.5469C401.351 45.5469 402.094 45.7513 402.59 46.1599C403.086 46.5685 403.417 47.148 403.585 47.8983C403.752 48.6485 403.836 49.5396 403.836 50.5712V55.0128H401.686V50.5512C401.686 49.4794 401.578 48.6822 401.364 48.1596C401.15 47.6371 400.661 47.3759 399.897 47.3759C399.522 47.3759 399.13 47.4931 398.721 47.7277C398.313 47.9622 397.968 48.3038 397.686 48.7526C397.405 49.2014 397.264 49.7609 397.264 50.4307V55.013H395.134L395.134 55.0128ZM407.012 55.0128V47.5566H405.384V45.788H407.012V42.0298L409.202 41.5474V45.788H411.333V47.5566H409.202V55.0128H407.012ZM413.925 55.0128V47.5164H412.438V45.788H413.925V43.7983C413.925 42.6058 414.213 41.6748 414.789 41.0049C415.366 40.3349 416.223 40 417.362 40C417.724 40 418.049 40.0537 418.337 40.1607C418.625 40.2679 418.816 40.3416 418.909 40.3819L418.487 42.4318C418.42 42.3514 418.29 42.2544 418.095 42.1404C417.901 42.0265 417.677 41.9697 417.422 41.9697C417.235 41.9697 417.037 42.0065 416.829 42.0802C416.622 42.1539 416.444 42.3148 416.297 42.5625C416.149 42.8104 416.069 43.1955 416.056 43.7181V45.7882H418.226V47.5166H416.056V55.013H413.925V55.0128ZM424.115 55.2137C423.15 55.2137 422.302 54.9993 421.572 54.5707C420.842 54.1419 420.276 53.5591 419.874 52.8221C419.472 52.0852 419.271 51.268 419.271 50.3703C419.271 49.4861 419.469 48.6787 419.864 47.9485C420.259 47.2183 420.819 46.6355 421.542 46.1999C422.266 45.7644 423.123 45.5467 424.115 45.5467C425.106 45.5467 425.964 45.7644 426.687 46.1999C427.411 46.6355 427.967 47.2183 428.355 47.9485C428.744 48.6787 428.938 49.4859 428.938 50.3703C428.938 51.268 428.74 52.0854 428.345 52.8221C427.95 53.5591 427.39 54.1419 426.667 54.5707C425.944 54.9995 425.093 55.2137 424.115 55.2137H424.115ZM424.175 53.4451C424.979 53.4451 425.598 53.1505 426.034 52.561C426.469 51.9714 426.687 51.2547 426.687 50.4105C426.687 49.8343 426.58 49.3152 426.366 48.8529C426.151 48.3906 425.846 48.0189 425.451 47.7375C425.056 47.4562 424.59 47.3155 424.054 47.3155C423.532 47.3155 423.083 47.4562 422.708 47.7375C422.333 48.0189 422.041 48.3908 421.833 48.8529C421.626 49.3152 421.522 49.8343 421.522 50.4105C421.522 50.9733 421.636 51.4858 421.863 51.9479C422.091 52.4102 422.403 52.7752 422.798 53.0433C423.193 53.3114 423.652 53.4453 424.175 53.4453V53.4451ZM431.028 55.0128V45.788H433.199V47.5968C433.413 46.9939 433.758 46.5015 434.234 46.1197C434.709 45.7378 435.262 45.5469 435.892 45.5469C436.321 45.5469 436.615 45.5871 436.776 45.6674L436.474 47.858C436.354 47.7776 436.092 47.7375 435.691 47.7375C435.356 47.7375 434.994 47.8113 434.605 47.9587C434.217 48.1061 433.885 48.364 433.61 48.7324C433.336 49.101 433.198 49.6133 433.198 50.2698V55.0128H431.028H431.028ZM439.107 55.0128V47.5566H437.479V45.788H439.107V42.0298L441.298 41.5474V45.788H443.428V47.5566H441.298V55.0128H439.107ZM445.297 55.0128V40.2412H447.407V45.788L447.327 47.4964C447.568 46.9471 447.967 46.4848 448.523 46.1097C449.079 45.7344 449.745 45.5469 450.522 45.5469C451.514 45.5469 452.258 45.7513 452.753 46.1599C453.249 46.5685 453.581 47.148 453.748 47.8983C453.916 48.6485 453.999 49.5396 453.999 50.5712V55.0128H451.849V50.5512C451.849 49.4794 451.742 48.6822 451.528 48.1596C451.313 47.6371 450.824 47.3759 450.06 47.3759C449.685 47.3759 449.293 47.4931 448.885 47.7277C448.476 47.9622 448.131 48.3038 447.849 48.7526C447.568 49.2014 447.427 49.7609 447.427 50.4307V55.013H445.297L445.297 55.0128Z" fill="#0A2A60"/>
<path d="M11 191C181.49 152.698 396.704 82.3741 483 52" stroke="#2CB802" stroke-width="8"/>
<path d="M15 194L484 161" stroke="#E91F1F" stroke-width="8"/>
<circle cx="485.5" cy="158.5" r="7" fill="white" stroke="#E91F1F" stroke-width="3"/>
<circle cx="483.5" cy="48.5" r="7" fill="white" stroke="#228A03" stroke-width="3"/>
<circle cx="8.5" cy="195.5" r="7" fill="white" stroke="#228A03" stroke-width="3"/>
</svg>
